<mxfile host="app.diagrams.net" agent="Mozilla/5.0 (Macintosh; Intel Mac OS X 10_15_7) AppleWebKit/537.36 (KHTML, like Gecko) Chrome/132.0.0.0 Safari/537.36" version="26.0.16">
  <diagram name="페이지-1" id="NqqueZYUzoqBwGXgmVrb">
    <mxGraphModel dx="1214" dy="833" grid="1" gridSize="10" guides="1" tooltips="1" connect="1" arrows="1" fold="1" page="1" pageScale="1" pageWidth="1654" pageHeight="2336" math="0" shadow="0">
      <root>
        <mxCell id="0" />
        <mxCell id="1" parent="0" />
        <mxCell id="guLPtIiRwvCAkNSm3Y4c-2" value="로그인 여부&lt;div&gt;&lt;span style=&quot;background-color: transparent; color: light-dark(rgb(0, 0, 0), rgb(255, 255, 255));&quot;&gt;체크&lt;/span&gt;&lt;/div&gt;" style="rhombus;whiteSpace=wrap;html=1;" vertex="1" parent="1">
          <mxGeometry x="40" y="180" width="120" height="80" as="geometry" />
        </mxCell>
        <mxCell id="guLPtIiRwvCAkNSm3Y4c-4" value="메인 화면&lt;div&gt;(커뮤니티)&lt;/div&gt;" style="rounded=0;whiteSpace=wrap;html=1;" vertex="1" parent="1">
          <mxGeometry x="240" y="200" width="120" height="40" as="geometry" />
        </mxCell>
        <mxCell id="guLPtIiRwvCAkNSm3Y4c-6" value="로그인 화면" style="rounded=0;whiteSpace=wrap;html=1;" vertex="1" parent="1">
          <mxGeometry x="40" y="340" width="120" height="40" as="geometry" />
        </mxCell>
        <mxCell id="guLPtIiRwvCAkNSm3Y4c-7" value="" style="endArrow=classic;html=1;rounded=0;exitX=1;exitY=0.5;exitDx=0;exitDy=0;entryX=0;entryY=0.5;entryDx=0;entryDy=0;" edge="1" parent="1" source="guLPtIiRwvCAkNSm3Y4c-2" target="guLPtIiRwvCAkNSm3Y4c-4">
          <mxGeometry width="50" height="50" relative="1" as="geometry">
            <mxPoint x="340" y="380" as="sourcePoint" />
            <mxPoint x="390" y="330" as="targetPoint" />
          </mxGeometry>
        </mxCell>
        <mxCell id="guLPtIiRwvCAkNSm3Y4c-8" value="" style="endArrow=classic;html=1;rounded=0;exitX=0.5;exitY=1;exitDx=0;exitDy=0;entryX=0.5;entryY=0;entryDx=0;entryDy=0;" edge="1" parent="1" source="guLPtIiRwvCAkNSm3Y4c-2" target="guLPtIiRwvCAkNSm3Y4c-6">
          <mxGeometry width="50" height="50" relative="1" as="geometry">
            <mxPoint x="340" y="380" as="sourcePoint" />
            <mxPoint x="390" y="330" as="targetPoint" />
          </mxGeometry>
        </mxCell>
        <mxCell id="guLPtIiRwvCAkNSm3Y4c-9" value="테마 설정 화면" style="rounded=1;whiteSpace=wrap;html=1;" vertex="1" parent="1">
          <mxGeometry x="440" y="440" width="120" height="40" as="geometry" />
        </mxCell>
        <mxCell id="guLPtIiRwvCAkNSm3Y4c-10" value="게시글 업로드 화면" style="rounded=0;whiteSpace=wrap;html=1;" vertex="1" parent="1">
          <mxGeometry x="240" y="340" width="120" height="40" as="geometry" />
        </mxCell>
        <mxCell id="guLPtIiRwvCAkNSm3Y4c-11" value="프로필 화면" style="rounded=0;whiteSpace=wrap;html=1;" vertex="1" parent="1">
          <mxGeometry x="240" y="480" width="120" height="40" as="geometry" />
        </mxCell>
        <mxCell id="guLPtIiRwvCAkNSm3Y4c-12" value="피드백 화면" style="rounded=1;whiteSpace=wrap;html=1;" vertex="1" parent="1">
          <mxGeometry x="440" y="520" width="120" height="40" as="geometry" />
        </mxCell>
        <mxCell id="guLPtIiRwvCAkNSm3Y4c-13" value="공지사항 화면" style="rounded=1;whiteSpace=wrap;html=1;" vertex="1" parent="1">
          <mxGeometry x="440" y="600" width="120" height="40" as="geometry" />
        </mxCell>
        <mxCell id="guLPtIiRwvCAkNSm3Y4c-14" value="대표 지수 정보" style="rounded=1;whiteSpace=wrap;html=1;" vertex="1" parent="1">
          <mxGeometry x="440" y="160" width="120" height="40" as="geometry" />
        </mxCell>
        <mxCell id="guLPtIiRwvCAkNSm3Y4c-15" value="사용자 게시글" style="rounded=1;whiteSpace=wrap;html=1;" vertex="1" parent="1">
          <mxGeometry x="440" y="240" width="120" height="40" as="geometry" />
        </mxCell>
        <mxCell id="guLPtIiRwvCAkNSm3Y4c-16" value="" style="edgeStyle=elbowEdgeStyle;elbow=horizontal;endArrow=classic;html=1;curved=0;rounded=0;endSize=8;startSize=8;exitX=1;exitY=0.5;exitDx=0;exitDy=0;entryX=0;entryY=0.5;entryDx=0;entryDy=0;" edge="1" parent="1" source="guLPtIiRwvCAkNSm3Y4c-4" target="guLPtIiRwvCAkNSm3Y4c-14">
          <mxGeometry width="50" height="50" relative="1" as="geometry">
            <mxPoint x="340" y="430" as="sourcePoint" />
            <mxPoint x="390" y="380" as="targetPoint" />
          </mxGeometry>
        </mxCell>
        <mxCell id="guLPtIiRwvCAkNSm3Y4c-17" value="" style="edgeStyle=elbowEdgeStyle;elbow=horizontal;endArrow=classic;html=1;curved=0;rounded=0;endSize=8;startSize=8;exitX=1;exitY=0.5;exitDx=0;exitDy=0;entryX=0;entryY=0.5;entryDx=0;entryDy=0;" edge="1" parent="1" source="guLPtIiRwvCAkNSm3Y4c-4" target="guLPtIiRwvCAkNSm3Y4c-15">
          <mxGeometry width="50" height="50" relative="1" as="geometry">
            <mxPoint x="370" y="230" as="sourcePoint" />
            <mxPoint x="450" y="190" as="targetPoint" />
          </mxGeometry>
        </mxCell>
        <mxCell id="guLPtIiRwvCAkNSm3Y4c-18" value="" style="endArrow=classic;startArrow=classic;html=1;rounded=0;entryX=0.5;entryY=1;entryDx=0;entryDy=0;exitX=0.5;exitY=0;exitDx=0;exitDy=0;" edge="1" parent="1" source="guLPtIiRwvCAkNSm3Y4c-10" target="guLPtIiRwvCAkNSm3Y4c-4">
          <mxGeometry width="50" height="50" relative="1" as="geometry">
            <mxPoint x="340" y="430" as="sourcePoint" />
            <mxPoint x="390" y="380" as="targetPoint" />
          </mxGeometry>
        </mxCell>
        <mxCell id="guLPtIiRwvCAkNSm3Y4c-19" value="" style="endArrow=classic;startArrow=classic;html=1;rounded=0;entryX=0.5;entryY=1;entryDx=0;entryDy=0;exitX=0.5;exitY=0;exitDx=0;exitDy=0;" edge="1" parent="1" source="guLPtIiRwvCAkNSm3Y4c-11" target="guLPtIiRwvCAkNSm3Y4c-10">
          <mxGeometry width="50" height="50" relative="1" as="geometry">
            <mxPoint x="310" y="390" as="sourcePoint" />
            <mxPoint x="300" y="420" as="targetPoint" />
          </mxGeometry>
        </mxCell>
        <mxCell id="guLPtIiRwvCAkNSm3Y4c-20" value="" style="edgeStyle=elbowEdgeStyle;elbow=horizontal;endArrow=classic;html=1;curved=0;rounded=0;endSize=8;startSize=8;exitX=1;exitY=0.5;exitDx=0;exitDy=0;entryX=0;entryY=0.5;entryDx=0;entryDy=0;" edge="1" parent="1">
          <mxGeometry width="50" height="50" relative="1" as="geometry">
            <mxPoint x="360" y="500" as="sourcePoint" />
            <mxPoint x="440" y="460" as="targetPoint" />
          </mxGeometry>
        </mxCell>
        <mxCell id="guLPtIiRwvCAkNSm3Y4c-21" value="" style="edgeStyle=elbowEdgeStyle;elbow=horizontal;endArrow=classic;html=1;curved=0;rounded=0;endSize=8;startSize=8;entryX=0;entryY=0.5;entryDx=0;entryDy=0;" edge="1" parent="1">
          <mxGeometry width="50" height="50" relative="1" as="geometry">
            <mxPoint x="360" y="500" as="sourcePoint" />
            <mxPoint x="440" y="540" as="targetPoint" />
          </mxGeometry>
        </mxCell>
        <mxCell id="guLPtIiRwvCAkNSm3Y4c-22" value="" style="edgeStyle=elbowEdgeStyle;elbow=horizontal;endArrow=classic;html=1;curved=0;rounded=0;endSize=8;startSize=8;exitX=1;exitY=0.5;exitDx=0;exitDy=0;entryX=0;entryY=0.5;entryDx=0;entryDy=0;" edge="1" parent="1" source="guLPtIiRwvCAkNSm3Y4c-11" target="guLPtIiRwvCAkNSm3Y4c-13">
          <mxGeometry width="50" height="50" relative="1" as="geometry">
            <mxPoint x="370" y="510" as="sourcePoint" />
            <mxPoint x="440" y="600" as="targetPoint" />
          </mxGeometry>
        </mxCell>
        <mxCell id="guLPtIiRwvCAkNSm3Y4c-23" value="개인정보보호방침&lt;div&gt;및 약관 설명&lt;/div&gt;" style="rounded=1;whiteSpace=wrap;html=1;" vertex="1" parent="1">
          <mxGeometry x="440" y="680" width="120" height="40" as="geometry" />
        </mxCell>
        <mxCell id="guLPtIiRwvCAkNSm3Y4c-24" value="" style="edgeStyle=elbowEdgeStyle;elbow=horizontal;endArrow=classic;html=1;curved=0;rounded=0;endSize=8;startSize=8;exitX=1;exitY=0.5;exitDx=0;exitDy=0;entryX=0;entryY=0.5;entryDx=0;entryDy=0;" edge="1" parent="1" source="guLPtIiRwvCAkNSm3Y4c-11" target="guLPtIiRwvCAkNSm3Y4c-23">
          <mxGeometry width="50" height="50" relative="1" as="geometry">
            <mxPoint x="370" y="510" as="sourcePoint" />
            <mxPoint x="450" y="630" as="targetPoint" />
          </mxGeometry>
        </mxCell>
        <mxCell id="guLPtIiRwvCAkNSm3Y4c-26" value="게시글 업로드" style="rhombus;whiteSpace=wrap;html=1;" vertex="1" parent="1">
          <mxGeometry x="440" y="320" width="120" height="80" as="geometry" />
        </mxCell>
        <mxCell id="guLPtIiRwvCAkNSm3Y4c-27" value="" style="endArrow=classic;html=1;rounded=0;exitX=1;exitY=0.5;exitDx=0;exitDy=0;entryX=0;entryY=0.5;entryDx=0;entryDy=0;" edge="1" parent="1" source="guLPtIiRwvCAkNSm3Y4c-10" target="guLPtIiRwvCAkNSm3Y4c-26">
          <mxGeometry width="50" height="50" relative="1" as="geometry">
            <mxPoint x="370" y="359.5" as="sourcePoint" />
            <mxPoint x="440" y="360" as="targetPoint" />
          </mxGeometry>
        </mxCell>
        <mxCell id="guLPtIiRwvCAkNSm3Y4c-28" value="" style="endArrow=classic;html=1;rounded=0;exitX=0.5;exitY=0;exitDx=0;exitDy=0;" edge="1" parent="1" source="guLPtIiRwvCAkNSm3Y4c-26" target="guLPtIiRwvCAkNSm3Y4c-15">
          <mxGeometry width="50" height="50" relative="1" as="geometry">
            <mxPoint x="480" y="440" as="sourcePoint" />
            <mxPoint x="530" y="390" as="targetPoint" />
          </mxGeometry>
        </mxCell>
        <mxCell id="guLPtIiRwvCAkNSm3Y4c-30" value="회원가입 화면" style="rounded=0;whiteSpace=wrap;html=1;" vertex="1" parent="1">
          <mxGeometry x="40" y="480" width="120" height="40" as="geometry" />
        </mxCell>
        <mxCell id="guLPtIiRwvCAkNSm3Y4c-31" value="" style="endArrow=classic;html=1;rounded=0;exitX=0.5;exitY=1;exitDx=0;exitDy=0;entryX=0.5;entryY=0;entryDx=0;entryDy=0;" edge="1" parent="1" target="guLPtIiRwvCAkNSm3Y4c-30">
          <mxGeometry width="50" height="50" relative="1" as="geometry">
            <mxPoint x="100" y="380" as="sourcePoint" />
            <mxPoint x="390" y="450" as="targetPoint" />
          </mxGeometry>
        </mxCell>
        <mxCell id="guLPtIiRwvCAkNSm3Y4c-33" value="Y" style="text;html=1;align=center;verticalAlign=middle;whiteSpace=wrap;rounded=0;" vertex="1" parent="1">
          <mxGeometry x="160" y="190" width="60" height="30" as="geometry" />
        </mxCell>
        <mxCell id="guLPtIiRwvCAkNSm3Y4c-34" value="N" style="text;html=1;align=center;verticalAlign=middle;whiteSpace=wrap;rounded=0;" vertex="1" parent="1">
          <mxGeometry x="40" y="280" width="60" height="30" as="geometry" />
        </mxCell>
        <mxCell id="guLPtIiRwvCAkNSm3Y4c-35" value="Y" style="text;html=1;align=center;verticalAlign=middle;whiteSpace=wrap;rounded=0;" vertex="1" parent="1">
          <mxGeometry x="460" y="290" width="60" height="30" as="geometry" />
        </mxCell>
        <mxCell id="guLPtIiRwvCAkNSm3Y4c-37" value="Firebase Sever" style="strokeWidth=1;html=1;shape=mxgraph.flowchart.delay;whiteSpace=wrap;" vertex="1" parent="1">
          <mxGeometry x="640" y="600" width="120" height="40" as="geometry" />
        </mxCell>
        <mxCell id="guLPtIiRwvCAkNSm3Y4c-40" value="" style="endArrow=classic;startArrow=classic;html=1;rounded=0;exitX=1;exitY=0.5;exitDx=0;exitDy=0;entryX=0;entryY=0.5;entryDx=0;entryDy=0;entryPerimeter=0;" edge="1" parent="1" source="guLPtIiRwvCAkNSm3Y4c-13" target="guLPtIiRwvCAkNSm3Y4c-37">
          <mxGeometry width="50" height="50" relative="1" as="geometry">
            <mxPoint x="530" y="600" as="sourcePoint" />
            <mxPoint x="580" y="550" as="targetPoint" />
          </mxGeometry>
        </mxCell>
        <mxCell id="guLPtIiRwvCAkNSm3Y4c-43" value="홈페이지" style="strokeWidth=1;html=1;shape=mxgraph.flowchart.delay;whiteSpace=wrap;" vertex="1" parent="1">
          <mxGeometry x="640" y="520" width="120" height="40" as="geometry" />
        </mxCell>
        <mxCell id="guLPtIiRwvCAkNSm3Y4c-44" value="" style="endArrow=classic;startArrow=classic;html=1;rounded=0;exitX=1;exitY=0.5;exitDx=0;exitDy=0;entryX=0;entryY=0.5;entryDx=0;entryDy=0;entryPerimeter=0;" edge="1" parent="1" target="guLPtIiRwvCAkNSm3Y4c-43">
          <mxGeometry width="50" height="50" relative="1" as="geometry">
            <mxPoint x="560" y="540" as="sourcePoint" />
            <mxPoint x="580" y="470" as="targetPoint" />
          </mxGeometry>
        </mxCell>
        <mxCell id="guLPtIiRwvCAkNSm3Y4c-47" value="인용할 주식&lt;div&gt;정보&lt;/div&gt;" style="ellipse;whiteSpace=wrap;html=1;" vertex="1" parent="1">
          <mxGeometry x="640" y="320" width="120" height="80" as="geometry" />
        </mxCell>
        <mxCell id="guLPtIiRwvCAkNSm3Y4c-48" value="" style="endArrow=classic;html=1;rounded=0;entryX=1;entryY=0.5;entryDx=0;entryDy=0;exitX=0;exitY=0.5;exitDx=0;exitDy=0;" edge="1" parent="1" source="guLPtIiRwvCAkNSm3Y4c-47" target="guLPtIiRwvCAkNSm3Y4c-26">
          <mxGeometry width="50" height="50" relative="1" as="geometry">
            <mxPoint x="530" y="400" as="sourcePoint" />
            <mxPoint x="580" y="350" as="targetPoint" />
          </mxGeometry>
        </mxCell>
      </root>
    </mxGraphModel>
  </diagram>
</mxfile>
